<?xml version="1.0" standalone="no"?>
<!DOCTYPE svg PUBLIC "-//W3C//DTD SVG 20010904//EN"
 "http://www.w3.org/TR/2001/REC-SVG-20010904/DTD/svg10.dtd">
<svg version="1.0" xmlns="http://www.w3.org/2000/svg"
 width="560.000000pt" height="560.000000pt" viewBox="0 0 560.000000 560.000000"
 preserveAspectRatio="xMidYMid meet">

<g transform="translate(0.000000,560.000000) scale(0.100000,-0.100000)"
fill="#012C22" stroke="none">
<path d="M3542 3600 c-94 -25 -148 -49 -232 -105 -125 -83 -246 -240 -285
-369 l-15 -48 34 -52 c19 -28 42 -71 52 -96 l18 -45 19 95 c21 110 52 183 109
258 82 109 178 178 303 218 387 123 786 -192 762 -601 -17 -276 -206 -493
-479 -551 -47 -10 -98 -14 -141 -10 l-69 5 -64 -54 -64 -54 53 -16 c177 -54
428 -8 590 108 369 264 424 769 119 1109 -51 56 -184 146 -262 176 -141 55
-313 67 -448 32z"/>
<path d="M3540 3065 l-175 -175 48 -47 47 -48 95 95 95 95 0 -46 c0 -157 -82
-314 -194 -371 -35 -18 -54 -20 -185 -16 -166 4 -193 13 -240 78 -16 22 -44
86 -62 143 -18 56 -47 125 -64 152 -67 105 -172 178 -294 204 -36 8 -335 11
-966 11 l-915 0 0 -70 0 -70 925 0 c909 0 925 0 979 -21 99 -36 173 -132 205
-263 28 -113 111 -224 204 -271 44 -21 64 -25 144 -25 51 0 93 -4 93 -9 0 -4
-50 -50 -112 -102 -61 -52 -144 -122 -183 -156 -40 -35 -75 -63 -79 -63 -9 0
-366 311 -366 319 0 3 25 4 56 3 31 -2 81 -1 110 3 l54 6 0 65 0 64 -302 0
c-256 0 -300 -2 -288 -14 8 -7 128 -109 265 -227 310 -264 284 -243 380 -328
44 -39 85 -71 92 -71 7 0 20 8 30 18 10 10 63 56 118 102 55 46 170 145 255
220 85 74 173 150 195 168 197 163 271 292 276 477 1 41 5 75 8 75 4 0 46 -38
93 -85 48 -47 91 -85 95 -85 5 0 29 20 53 45 l44 45 -174 175 c-96 96 -177
175 -180 175 -3 0 -84 -79 -180 -175z"/>
</g>
</svg>
