<?xml version="1.0" standalone="no"?>
<!DOCTYPE svg PUBLIC "-//W3C//DTD SVG 20010904//EN"
 "http://www.w3.org/TR/2001/REC-SVG-20010904/DTD/svg10.dtd">
<svg version="1.0" xmlns="http://www.w3.org/2000/svg"
 width="992.000000pt" height="1057.000000pt" viewBox="0 0 992.000000 1057.000000"
 preserveAspectRatio="xMidYMid meet">

<g transform="translate(0.000000,1057.000000) scale(0.100000,-0.100000)"
fill="#000000" stroke="none">
<path d="M1320 4890 l0 -4070 4050 0 4050 0 0 4070 0 4070 -4050 0 -4050 0 0
-4070z m1430 3320 l0 -670 -665 0 -665 0 0 670 0 670 665 0 665 0 0 -670z
m1640 0 l0 -670 -665 0 -665 0 0 670 0 670 665 0 665 0 0 -670z m1640 0 l0
-670 -665 0 -665 0 0 663 c0 365 3 667 7 670 3 4 303 7 665 7 l658 0 0 -670z
m1640 0 l0 -670 -665 0 -665 0 0 663 c0 365 3 667 7 670 3 4 303 7 665 7 l658
0 0 -670z m1650 0 l0 -670 -665 0 -665 0 0 670 0 670 665 0 665 0 0 -670z
m-1390 -3305 l0 -2585 -2560 0 -2560 0 0 843 c-1 768 -1 4286 0 4314 0 9 596
12 2560 12 l2560 0 0 -2584z m-5202 2315 l22 0 0 -665 0 -665 -665 0 -665 0 0
663 c0 365 2 666 4 668 3 3 1143 3 1304 -1z m5943 0 l649 0 0 -665 0 -665
-665 0 -665 0 0 671 c0 608 1 671 16 665 9 -3 308 -6 665 -6z m-5921 -2320 l0
-670 -665 0 -665 0 0 670 0 670 665 0 665 0 0 -670z m6570 0 l0 -670 -665 0
-664 0 -3 648 c-2 356 -1 657 1 670 l3 22 664 0 664 0 0 -670z m-6572 -1652
l2 -668 -665 0 -665 0 0 663 c0 365 2 666 4 668 2 2 301 4 663 4 l658 0 3
-667z m6570 0 l2 -668 -667 0 -668 0 1 662 c1 597 3 662 18 667 8 4 307 6 663
6 l648 0 3 -667z m-4928 -1654 l0 -674 -665 0 -665 0 0 670 0 670 503 2 c276
2 575 4 665 5 l162 1 0 -674z m1640 1 l0 -675 -662 2 -663 3 -3 660 c-1 363 0
665 2 670 2 6 235 11 665 12 l661 3 0 -675z m1640 -3 l0 -672 -662 2 -661 3
-1 668 c-1 368 -1 669 0 670 1 1 300 2 663 2 l661 0 0 -673z m1650 -2 l0 -670
-664 0 -665 0 -3 33 c-2 17 -2 320 0 672 l2 640 665 -3 665 -2 0 -670z m-6570
0 l0 -670 -665 0 -665 0 0 670 0 670 665 0 665 0 0 -670z"/>
<path d="M3214 7270 c-46 -11 -99 -46 -139 -93 -65 -75 -66 -86 -63 -643 l3
-499 24 -49 c13 -26 40 -64 59 -83 70 -71 39 -67 732 -73 617 -5 626 -5 665
-27 47 -25 105 -84 131 -133 18 -34 19 -96 22 -1592 l2 -1558 720 0 720 0 2
1563 3 1562 27 47 c16 25 45 60 65 78 73 60 77 60 732 60 l596 0 50 24 c69 32
130 101 150 169 14 47 15 121 13 548 l-3 494 -24 53 c-30 67 -98 127 -164 147
-44 13 -316 15 -2171 14 -1167 -1 -2135 -4 -2152 -9z"/>
<path d="M3010 4900 l0 -720 720 0 720 0 0 720 0 720 -720 0 -720 0 0 -720z
m1380 0 l0 -670 -665 0 -665 0 0 670 0 670 665 0 665 0 0 -670z"/>
<path d="M6290 4900 l0 -720 720 0 720 0 0 720 0 720 -720 0 -720 0 0 -720z
m1380 0 l0 -670 -664 0 -664 0 0 670 1 670 663 0 664 0 0 -670z"/>
<path d="M3010 3245 l0 -725 720 0 720 0 0 725 0 725 -720 0 -720 0 0 -725z
m1380 5 l0 -670 -665 0 -665 0 0 663 c0 365 2 666 4 668 3 2 302 5 665 6 l661
2 0 -669z"/>
<path d="M6290 3245 l0 -725 720 0 720 0 0 725 0 725 -720 0 -720 0 0 -725z
m1368 667 c9 -2 12 -143 12 -667 l0 -665 -665 0 -665 0 0 664 0 665 33 3 c36
3 1265 4 1285 0z"/>
</g>
</svg>
